<svg id="instagram_2_" data-name="instagram (2)" xmlns="http://www.w3.org/2000/svg" width="33.634" height="33.634" viewBox="0 0 33.634 33.634">
  <path id="Path_34" data-name="Path 34" d="M216.912,213.956A2.956,2.956,0,1,1,213.956,211,2.956,2.956,0,0,1,216.912,213.956Zm0,0" transform="translate(-197.139 -197.139)" fill="#161644"/>
  <path id="Path_35" data-name="Path 35" d="M133.926,120h-9.985A3.946,3.946,0,0,0,120,123.941v9.985a3.946,3.946,0,0,0,3.941,3.941h9.985a3.946,3.946,0,0,0,3.941-3.941v-9.985A3.946,3.946,0,0,0,133.926,120Zm-4.992,13.861a4.927,4.927,0,1,1,4.927-4.927A4.932,4.932,0,0,1,128.934,133.861Zm5.649-9.591a.985.985,0,1,1,.985-.985A.985.985,0,0,1,134.583,124.27Zm0,0" transform="translate(-112.117 -112.117)" fill="#161644"/>
  <path id="Path_36" data-name="Path 36" d="M24.765,0H8.868A8.878,8.878,0,0,0,0,8.868v15.9a8.878,8.878,0,0,0,8.868,8.868h15.9a8.878,8.878,0,0,0,8.868-8.868V8.868A8.878,8.878,0,0,0,24.765,0Zm2.956,21.809a5.919,5.919,0,0,1-5.912,5.912H11.824a5.919,5.919,0,0,1-5.912-5.912V11.824a5.919,5.919,0,0,1,5.912-5.912h9.985a5.919,5.919,0,0,1,5.912,5.912Zm0,0" transform="translate(0)" fill="#161644"/>
</svg>
